<?xml version="1.0" standalone="no"?><!DOCTYPE svg PUBLIC "-//W3C//DTD SVG 1.1//EN" "http://www.w3.org/Graphics/SVG/1.1/DTD/svg11.dtd"><svg t="1633935387270" class="icon" viewBox="0 0 1024 1024" version="1.1" xmlns="http://www.w3.org/2000/svg" p-id="20452" xmlns:xlink="http://www.w3.org/1999/xlink" width="128" height="128"><defs><style type="text/css"></style></defs><path d="M512.034133 227.328C287.4368 227.328 109.226667 401.749333 109.226667 621.397333c0 219.648 178.312533 394.171733 402.8416 394.171734 224.597333 0 402.8416-174.455467 402.8416-394.171734S736.597333 227.293867 512.034133 227.293867z m203.298134 375.944533l-79.223467 77.585067 19.797333 109.841067c6.587733 38.775467-13.243733 51.677867-46.216533 32.324266l-99.054933-51.712-99.054934 51.712c-33.041067 19.285333-52.8384 0-46.250666-32.324266l19.797333-109.841067-79.2576-77.550933c-26.385067-25.838933-19.797333-51.712 19.8656-58.1632l105.608533-12.970667 46.250667-96.904533c13.2096-32.324267 39.594667-32.324267 59.460267 0l46.216533 96.938666 112.298667 12.9024c39.594667 12.970667 52.804267 32.324267 19.7632 58.1632z m199.543466-556.885333c6.621867-6.485333 6.621867-12.970667 6.621867-12.970667 0-12.868267-13.2096-25.8048-26.385067-25.8048H644.096c-13.2096 0-26.4192 6.485333-26.4192 19.387734l-79.223467 142.1312s165.0688 6.485333 264.157867 103.424l112.298667-226.167467zM485.649067 169.130667L406.357333 20.48c0-12.9024-13.2096-19.387733-26.4192-19.387733H135.5776c-19.797333 0-32.9728 12.970667-32.9728 25.838933 0 6.485333 0 12.970667 6.587733 12.970667l112.264534 226.0992c99.054933-83.968 264.192-96.904533 264.192-96.904534v0.034134z" p-id="20453"></path></svg>