<?xml version="1.0" standalone="no"?><!DOCTYPE svg PUBLIC "-//W3C//DTD SVG 1.1//EN" "http://www.w3.org/Graphics/SVG/1.1/DTD/svg11.dtd"><svg t="1633938246822" class="icon" viewBox="0 0 1024 1024" version="1.1" xmlns="http://www.w3.org/2000/svg" p-id="45957" xmlns:xlink="http://www.w3.org/1999/xlink" width="128" height="128"><defs><style type="text/css"></style></defs><path d="M979.968 367.744c-24.448-11.136-408.448-184.832-408.448-184.832s-42.24-19.84-59.648-19.84c-17.536 0-59.648 19.84-59.648 19.84S68.224 356.608 43.648 367.744c-24.448 11.136 0 25.472 0 25.472S372.48 542.336 432.256 568.96c49.024 21.888 59.904 21.376 79.616 21.376 19.712 0 30.592 0.512 79.616-21.376 41.216-18.432 210.304-94.976 311.424-140.8v128.128l-33.152 33.152 46.208 46.208 46.208-46.208-33.152-33.152V416.384c30.976-14.08 51.072-23.168 51.072-23.168s24.32-14.464-0.128-25.472z m0 0" p-id="45958"></path><path d="M511.872 632.448c-19.712 0-30.592 0.512-79.616-21.376-29.696-13.312-125.824-56.704-215.04-97.152v294.656c89.216 40.448 185.344 83.968 215.04 97.152 49.024 21.888 59.904 21.376 79.616 21.376 19.712 0 30.592 0.512 79.616-21.376 29.696-13.312 125.824-56.704 215.04-97.152V513.92C717.312 554.24 621.184 597.76 591.36 611.072c-48.896 21.76-59.904 21.376-79.488 21.376z m0 0" p-id="45959"></path></svg>