<?xml version="1.0" standalone="no"?><!DOCTYPE svg PUBLIC "-//W3C//DTD SVG 1.1//EN" "http://www.w3.org/Graphics/SVG/1.1/DTD/svg11.dtd"><svg t="1612429213941" class="icon" viewBox="0 0 1024 1024" version="1.1" xmlns="http://www.w3.org/2000/svg" p-id="7623" xmlns:xlink="http://www.w3.org/1999/xlink" width="128" height="128"><defs><style type="text/css"></style></defs><path d="M917.32962 929.31961h-64.150347c-0.262808-188.061843-67.170123-299.57202-123.328485-360.020902-29.939984-32.227723-60.029999-53.803159-83.466238-67.605115 23.114022-18.478127 53.863575-46.375055 84.622191-84.176122 55.026576-67.620219 120.43659-181.106995 122.106075-339.26309h64.215797c21.609672 0 39.12719-17.517518 39.127191-39.127191s-17.516512-39.12719-39.127191-39.12719H136.11999c-21.609672 0-39.12719 17.517518-39.127191 39.12719s17.516512 39.12719 39.127191 39.127191h64.215797c1.669486 158.155088 67.079499 271.642871 122.106075 339.264097 30.758616 37.80006 61.510183 65.696988 84.625212 84.175115-23.437246 13.801956-53.527261 35.377392-83.467245 67.605115-56.156349 60.448881-123.066684 171.959058-123.329493 360.020902h-64.149339c-21.609672 0-39.12719 17.516512-39.127191 39.12719s17.516512 39.12719 39.127191 39.127191h781.20963c21.609672 0 39.12719-17.516512 39.127191-39.127191s-17.518525-39.12719-39.128198-39.12719zM360.946771 608.163091c52.740851-57.799655 106.433248-76.312018 106.858172-76.455002 10.03504-3.275535 17.204364-12.129449 18.367366-22.620627 1.163001-10.491178-3.938094-20.706458-13.010511-26.099562-0.55381-0.328258-55.917707-33.651519-110.318982-101.068338C291.935985 294.049023 255.390557 191.9073 254.117801 78.254381h545.215015c-1.272756 113.652919-37.818185 215.795649-108.725015 303.667195-54.399261 67.414806-109.762151 100.738066-110.270649 101.040144-9.072417 5.346785-14.135249 15.515747-13.038705 25.989807 1.093523 10.473053 8.255799 19.364224 18.237472 22.719306 0.537699 0.18024 54.22909 18.692603 106.96994 76.492258 69.157798 75.791436 105.056778 180.781757 106.802791 312.151566-27.533427-101.249585-136.043967-171.976176-194.914992-221.120282-47.373927-39.545065-82.266987-171.847289-77.205163-198.341566 5.060818-26.494278 201.706719-152.639139 201.706719-259.99272H320.516617c0 117.134874 198.158306 238.626724 200.767255 259.395612 2.609956 20.768888-31.215761 153.520201-74.566005 198.733261-41.883151 43.682531-158.116825 115.244871-192.433923 213.911687 2.980506-127.906985 38.809001-230.377973 106.662827-304.737558z" p-id="7624"></path></svg>