<?xml version="1.0" standalone="no"?><!DOCTYPE svg PUBLIC "-//W3C//DTD SVG 1.1//EN" "http://www.w3.org/Graphics/SVG/1.1/DTD/svg11.dtd"><svg t="1633938323381" class="icon" viewBox="0 0 1024 1024" version="1.1" xmlns="http://www.w3.org/2000/svg" p-id="50540" xmlns:xlink="http://www.w3.org/1999/xlink" width="128" height="128"><defs><style type="text/css"></style></defs><path d="M485.376 625.664c100.864 0 232.96-134.144 232.96-304.128S633.344 84.48 485.376 84.48s-236.544 65.024-236.544 237.056c0 168.448 136.192 304.128 236.544 304.128z m98.816 305.152H84.48c-46.592 0-79.36-46.08-63.488-90.112 11.264-31.744 24.576-63.488 37.888-77.312C83.456 737.28 223.744 663.04 286.208 630.784c16.384-8.704 36.352-2.56 45.056 13.824l71.168 131.072c10.24 18.432 37.888 13.312 40.96-7.168 0.512-4.608 0-9.216-2.048-12.8l-15.872-29.696c-4.096-7.68-3.072-17.408 2.56-24.064l29.696-35.328c11.776-14.336 33.28-15.872 47.616-4.096 1.536 1.024 3.072 2.56 4.096 4.096l30.208 35.328c5.632 6.656 6.656 16.384 2.56 24.064l-15.872 29.696c-2.048 4.096-3.072 8.704-2.048 12.8 2.56 20.992 30.72 26.112 40.96 7.168l71.168-131.072c8.704-16.384 28.672-22.528 45.056-13.824 9.728 5.12 21.504 11.264 33.792 17.92l-115.2 165.376c-10.24 14.848-15.872 32.768-15.872 51.2v65.536z m71.168-131.584l182.784-233.984 99.328 77.824-182.784 233.984-105.472 54.272c-4.608 2.048-9.728 0.512-12.288-4.096-1.024-1.536-1.024-3.584-1.024-5.632l19.456-122.368z m18.432 13.312l-16.896 95.232 82.432-44.032-65.536-51.2z m179.2-266.752l15.36-19.456 99.328 77.824-15.36 19.456-99.328-77.824z m30.72-38.912l16.384-20.992c7.68-9.728 22.016-11.776 31.744-4.096l64 50.176c9.728 7.68 11.264 22.016 4.096 31.744l-16.384 21.504-99.84-78.336z" p-id="50541"></path></svg>