<svg t="1633667021983" class="icon" viewBox="0 0 1280 1024" version="1.1" xmlns="http://www.w3.org/2000/svg" p-id="31162" width="128" height="128"><path d="M720 352h-48v-80a16 16 0 0 0-16-16h-32a16 16 0 0 0-16 16v128a16 16 0 0 0 16 16h96a16 16 0 0 0 16-16v-32a16 16 0 0 0-16-16zM0 448v544a32 32 0 0 0 32 32h160V384H64a64 64 0 0 0-64 64z m1216-64h-128v640h160a32 32 0 0 0 32-32V448a64 64 0 0 0-64-64z" opacity=".4" p-id="31163"></path><path d="M995.5 224l-320-213.26a64 64 0 0 0-71 0L284.5 224A64 64 0 0 0 256 277.32V1024h256V736a32 32 0 0 1 32-32h192a32 32 0 0 1 32 32v288h256V277.34A64 64 0 0 0 995.5 224zM640 512a160 160 0 1 1 160-160 160 160 0 0 1-160 160z" p-id="31164"></path></svg>