<?xml version="1.0" standalone="no"?><!DOCTYPE svg PUBLIC "-//W3C//DTD SVG 1.1//EN" "http://www.w3.org/Graphics/SVG/1.1/DTD/svg11.dtd"><svg t="1633935149961" class="icon" viewBox="0 0 1024 1024" version="1.1" xmlns="http://www.w3.org/2000/svg" p-id="4808" xmlns:xlink="http://www.w3.org/1999/xlink" width="128" height="128"><defs><style type="text/css"></style></defs><path d="M80.896 948.736c-24.576-10.24-40.448-19.968-72.192-50.176C71.68 805.888 93.696 727.04 101.376 658.432c-19.968-9.728-34.304-30.72-34.304-54.784 0-20.992 10.752-39.424 27.136-50.176 0.512-83.968 16.896-150.016 50.688-196.096L50.176 317.44c-27.648-12.8-28.16-32.768-0.512-45.056l448.512-188.416c27.648-12.288 22.016-12.288 49.664 0l445.952 189.952c27.648 12.288 28.16 32.256 0.512 45.056l-442.368 188.416c-27.648 12.288-22.016 12.288-49.664 0L285.696 416.256l253.44-125.952c16.896-8.192 23.552-28.672 15.36-45.056-8.192-16.896-28.672-23.552-45.056-15.36L223.232 372.224c-39.424 29.696-60.928 89.088-61.952 181.248 16.384 10.752 27.136 29.184 27.136 50.688 0 24.576-14.848 46.08-35.84 55.296 7.168 122.368 15.36 243.2-71.68 289.28z m433.152-36.352c-140.8-4.096-237.568-41.472-289.792-113.152v-111.104c19.456-22.528 31.232-51.712 31.232-83.968s-11.776-61.44-31.232-83.968v-22.528c0-12.288 10.24-22.528 22.528-22.528 3.072 0 6.144 0.512 8.704 1.536l241.664 101.376c19.456 8.192 41.984 8.192 61.44 0l281.6-120.32c11.264-5.12 24.576 0.512 29.696 11.776 1.024 2.56 2.048 5.632 2.048 8.704v321.024c-59.904 68.608-156.672 105.984-289.792 112.64l-68.096 0.512z m9.728-172.544v35.328H459.776c-13.312 0-24.064 10.752-24.064 24.064s10.752 24.064 24.064 24.064h64v46.592c0 13.312 10.752 24.064 24.064 24.064s24.064-10.752 24.064-24.064v-46.592h64c13.312 0 24.064-10.752 24.064-24.064s-10.752-24.064-24.064-24.064h-64v-35.328h64c13.312 0 24.064-10.752 24.064-24.064s-10.752-24.064-24.064-24.064h-34.304l50.688-47.104c9.728-9.216 10.24-24.064 1.024-33.792-9.216-9.728-24.064-10.24-33.792-1.024l-72.704 68.096L476.16 612.352c-9.728-9.216-25.088-8.192-33.792 1.536s-8.192 25.088 1.536 33.792l48.128 44.544h-31.744c-13.312 0-24.064 10.752-24.064 24.064s10.752 24.064 24.064 24.064l63.488-0.512z" p-id="4809"></path></svg>