<?xml version="1.0" standalone="no"?><!DOCTYPE svg PUBLIC "-//W3C//DTD SVG 1.1//EN" "http://www.w3.org/Graphics/SVG/1.1/DTD/svg11.dtd"><svg t="1634393325858" class="icon" viewBox="0 0 1024 1024" version="1.1" xmlns="http://www.w3.org/2000/svg" p-id="3124" xmlns:xlink="http://www.w3.org/1999/xlink" width="128" height="128"><defs><style type="text/css"></style></defs><path d="M176 64h549.632a64 64 0 0 1 45.296 18.784l122.368 122.56A64 64 0 0 1 912 250.56V896a64 64 0 0 1-64 64H176a64 64 0 0 1-64-64V128a64 64 0 0 1 64-64z m560 54.64v89.424a32 32 0 0 0 32 32h89.376a16 16 0 0 0 11.328-27.312l-105.392-105.44A16 16 0 0 0 736 118.656zM492.272 704h49.424v-50.08h-49.424V704z m-56.48-254.592c-1.568-58.416 28.064-81.2 93.952-78.416 40.768 4.16 54.24 19.328 57.408 55.488-3.152 18.08-9.408 41.024-40.768 68.832-36.096 32.032-54.112 60.528-54.112 85.552v29.232h49.424v-18.784c6.24-22.24 19.136-39.472 51.2-71.04 36.064-35.504 53.6-63.52 53.6-89.952-3.168-68.16-38.176-107.488-121.28-110.288-95.712-1.376-142.752 41.76-141.184 129.376h51.76z" fill="#7F8EB4" p-id="3125"></path></svg>